<?xml version="1.0" encoding="UTF-8"?>
<svg version="1.1" xmlns="http://www.w3.org/2000/svg" width="800" height="800">
<path d="M0 0 C1.72633667 -0.01045349 1.72633667 -0.01045349 3.48754883 -0.02111816 C7.17923684 -0.03841323 10.87077317 -0.04483736 14.5625 -0.046875 C16.4506543 -0.04838562 16.4506543 -0.04838562 18.37695312 -0.04992676 C36.33582397 -0.04018643 53.80069561 0.39846895 71.5625 3.203125 C73.5153694 3.474502 75.46849776 3.7440217 77.421875 4.01171875 C114.69031689 9.39407938 151.61765538 21.02285511 185.5625 37.203125 C186.33319824 37.57034668 187.10389648 37.93756836 187.89794922 38.31591797 C191.8619333 40.2231094 195.78600559 42.19684784 199.68652344 44.23046875 C201.6293901 45.23780618 203.58334468 46.2210001 205.5390625 47.203125 C234.49065632 61.91955496 261.26707472 81.65045252 284.97265625 103.796875 C287.10906893 105.78183761 289.27692515 107.69243989 291.5 109.578125 C300.15731506 117.09441318 308.16564944 125.45568176 315.5625 134.203125 C316.82900391 135.63591797 316.82900391 135.63591797 318.12109375 137.09765625 C335.45841887 156.78830429 350.50274484 178.46710898 363.5625 201.203125 C364.21871338 202.32920166 364.21871338 202.32920166 364.88818359 203.47802734 C396.11418429 257.36648527 415.51015214 322.1411832 415.765625 384.640625 C415.77607849 386.36696167 415.77607849 386.36696167 415.78674316 388.12817383 C415.80403823 391.81986184 415.81046236 395.51139817 415.8125 399.203125 C415.81350708 400.46189453 415.81451416 401.72066406 415.81555176 403.01757812 C415.80581143 420.97644897 415.36715605 438.44132061 412.5625 456.203125 C412.291123 458.1559944 412.0216033 460.10912276 411.75390625 462.0625 C406.37154562 499.33094189 394.74276989 536.25828038 378.5625 570.203125 C378.19527832 570.97382324 377.82805664 571.74452148 377.44970703 572.53857422 C375.5425156 576.5025583 373.56877716 580.42663059 371.53515625 584.32714844 C370.52781882 586.2700151 369.5446249 588.22396968 368.5625 590.1796875 C353.84607004 619.13128132 334.11517248 645.90769972 311.96875 669.61328125 C309.98378739 671.74969393 308.07318511 673.91755015 306.1875 676.140625 C298.67121182 684.79794006 290.30994324 692.80627444 281.5625 700.203125 C280.12970703 701.46962891 280.12970703 701.46962891 278.66796875 702.76171875 C258.97732071 720.09904387 237.29851602 735.14336984 214.5625 748.203125 C213.43642334 748.85933838 213.43642334 748.85933838 212.28759766 749.52880859 C158.39913973 780.75480929 93.6244418 800.15077714 31.125 800.40625 C29.39866333 800.41670349 29.39866333 800.41670349 27.63745117 800.42736816 C23.94576316 800.44466323 20.25422683 800.45108736 16.5625 800.453125 C14.6743457 800.45463562 14.6743457 800.45463562 12.74804688 800.45617676 C-5.21082397 800.44643643 -22.67569561 800.00778105 -40.4375 797.203125 C-42.3903694 796.931748 -44.34349776 796.6622283 -46.296875 796.39453125 C-83.56531689 791.01217062 -120.49265538 779.38339489 -154.4375 763.203125 C-155.20819824 762.83590332 -155.97889648 762.46868164 -156.77294922 762.09033203 C-160.7369333 760.1831406 -164.66100559 758.20940216 -168.56152344 756.17578125 C-170.5043901 755.16844382 -172.45834468 754.1852499 -174.4140625 753.203125 C-203.36565632 738.48669504 -230.14207472 718.75579748 -253.84765625 696.609375 C-255.98406893 694.62441239 -258.15192515 692.71381011 -260.375 690.828125 C-269.03231506 683.31183682 -277.04064944 674.95056824 -284.4375 666.203125 C-285.28183594 665.24792969 -286.12617188 664.29273438 -286.99609375 663.30859375 C-304.33341887 643.61794571 -319.37774484 621.93914102 -332.4375 599.203125 C-332.87497559 598.45240723 -333.31245117 597.70168945 -333.76318359 596.92822266 C-364.98918429 543.03976473 -384.38515214 478.2650668 -384.640625 415.765625 C-384.64759399 414.61473389 -384.65456299 413.46384277 -384.66174316 412.27807617 C-384.67903823 408.58638816 -384.68546236 404.89485183 -384.6875 401.203125 C-384.68901062 399.3149707 -384.68901062 399.3149707 -384.69055176 397.38867188 C-384.68081143 379.42980103 -384.24215605 361.96492939 -381.4375 344.203125 C-381.166123 342.2502556 -380.8966033 340.29712724 -380.62890625 338.34375 C-375.24654562 301.07530811 -363.61776989 264.14796962 -347.4375 230.203125 C-346.88666748 229.04707764 -346.88666748 229.04707764 -346.32470703 227.86767578 C-344.4175156 223.9036917 -342.44377716 219.97961941 -340.41015625 216.07910156 C-339.40281882 214.1362349 -338.4196249 212.18228032 -337.4375 210.2265625 C-322.72107004 181.27496868 -302.99017248 154.49855028 -280.84375 130.79296875 C-278.85878739 128.65655607 -276.94818511 126.48869985 -275.0625 124.265625 C-267.54621182 115.60830994 -259.18494324 107.59997556 -250.4375 100.203125 C-249.48230469 99.35878906 -248.52710938 98.51445313 -247.54296875 97.64453125 C-227.85232071 80.30720613 -206.17351602 65.26288016 -183.4375 52.203125 C-182.68678223 51.76564941 -181.93606445 51.32817383 -181.16259766 50.87744141 C-127.27413973 19.65144071 -62.4994418 0.25547286 0 0 Z " fill="#000000" transform="translate(384.4375,-0.203125)"/>
<path d="M0 0 C25.08 0 50.16 0 76 0 C76.02202541 44.1887279 76.04049725 88.37745065 76.05106533 132.56618246 C76.05231611 137.77727595 76.05361042 142.98836942 76.05493164 148.19946289 C76.05519395 149.23694391 76.05545626 150.27442492 76.05572652 151.34334476 C76.06008363 168.16533957 76.0679714 184.98733099 76.0771528 201.80932378 C76.0864882 219.05670766 76.09205537 236.30408976 76.09408849 253.55147606 C76.09546396 264.2030554 76.09981581 274.85462513 76.10791647 285.50620151 C76.11318253 292.79994081 76.11480462 300.09367511 76.11350138 307.38741618 C76.11285778 311.60212624 76.11387797 315.81681946 76.11920547 320.03152657 C76.12403928 323.88355156 76.12433878 327.73554824 76.12089889 331.58757449 C76.12047318 332.98731441 76.12176908 334.38705604 76.12488318 335.78679257 C76.12884698 337.67709918 76.12615645 339.56741636 76.12304783 341.45772457 C76.12342755 342.51144849 76.12380727 343.5651724 76.1241985 344.65082735 C76 347 76 347 75 348 C72.70488504 348.09971155 70.40665451 348.12799866 68.109375 348.12939453 C67.38907104 348.13114685 66.66876709 348.13289917 65.92663574 348.13470459 C63.53439966 348.13912288 61.1422369 348.13618521 58.75 348.1328125 C57.09472642 348.13348555 55.43945293 348.13445558 53.78417969 348.13571167 C50.31053733 348.13718861 46.83692063 348.13503421 43.36328125 348.13037109 C38.90067502 348.1246738 34.43812892 348.12795283 29.9755249 348.13394356 C26.5561477 348.13754927 23.13678485 348.13641054 19.71740723 348.13381577 C18.07149244 348.13314652 16.42557637 348.13397482 14.77966309 348.13629532 C12.48328169 348.13882202 10.18699901 348.13498103 7.890625 348.12939453 C5.92657715 348.12820114 5.92657715 348.12820114 3.92285156 348.12698364 C1 348 1 348 0 347 C-0.09755941 345.15469674 -0.12371373 343.30560485 -0.12304783 341.45772457 C-0.12503888 340.24699526 -0.12702993 339.03626594 -0.12908131 337.78884786 C-0.12622772 336.42799291 -0.12328211 335.06713815 -0.12025452 333.70628357 C-0.12069009 332.27411459 -0.12156475 330.84194569 -0.12284368 329.40977722 C-0.12509133 325.45568038 -0.1210637 321.50161036 -0.11606562 317.54751694 C-0.11176515 313.29050769 -0.11320726 309.03350007 -0.1139679 304.77648926 C-0.11449339 297.39475074 -0.11134396 290.01302102 -0.10573006 282.63128471 C-0.09761846 271.95840602 -0.09500019 261.28553161 -0.09374207 250.61265016 C-0.09155101 233.29848636 -0.08488947 215.98432726 -0.07543945 198.67016602 C-0.06626672 181.84659855 -0.05918521 165.02303235 -0.05493164 148.19946289 C-0.05466892 147.16323815 -0.05440619 146.12701341 -0.05413551 145.05938791 C-0.05283051 139.86118583 -0.0515668 134.66298374 -0.05032361 129.46478164 C-0.03994932 86.30985025 -0.02151012 43.15492756 0 0 Z " fill="#FEFEFE" transform="translate(322,289)"/>
<path d="M0 0 C0.69771011 0.00359528 1.39542023 0.00719055 2.11427307 0.01089478 C3.2117688 0.01067574 3.2117688 0.01067574 4.33143616 0.01045227 C6.76094989 0.0111515 9.19038789 0.01894432 11.61988831 0.02676392 C13.29997719 0.02862806 14.98006662 0.03005198 16.66015625 0.03105164 C21.09071849 0.03487709 25.52124815 0.04470761 29.95179749 0.05575562 C34.46941182 0.06596914 38.98703139 0.07054913 43.50465393 0.07559204 C52.37511098 0.08632986 61.24554381 0.10340661 70.11598206 0.12442017 C70.13884652 44.31314628 70.15647931 88.50187177 70.16704739 132.69060263 C70.16829817 137.90169611 70.16959248 143.11278959 70.1709137 148.32388306 C70.17117601 149.36136407 70.17143832 150.39884509 70.17170858 151.46776492 C70.17606569 168.28975974 70.18395346 185.11175115 70.19313485 201.93374395 C70.20247025 219.18112783 70.20803742 236.42850992 70.21007055 253.67589623 C70.21144601 264.32747557 70.21579787 274.9790453 70.22389852 285.63062168 C70.22916458 292.92436098 70.23078667 300.21809528 70.22948343 307.51183634 C70.22883983 311.72654641 70.22986003 315.94123963 70.23518753 320.15594673 C70.24002133 324.00797173 70.24032084 327.85996841 70.23688095 331.71199466 C70.23645524 333.11173458 70.23775114 334.51147621 70.24086524 335.91121273 C70.24482904 337.80151935 70.2421385 339.69183653 70.23902988 341.58214474 C70.2394096 342.63586865 70.23978932 343.68959257 70.24018055 344.77524751 C70.11598206 347.12442017 70.11598206 347.12442017 69.11598206 348.12442017 C66.77344424 348.21934739 64.46052101 348.25001808 62.11769104 348.23794556 C61.02019531 348.2381646 61.02019531 348.2381646 59.90052795 348.23838806 C57.47101422 348.23768883 55.04157622 348.22989601 52.61207581 348.22207642 C50.93198692 348.22021227 49.25189749 348.21878835 47.57180786 348.2177887 C43.14124562 348.21396324 38.71071596 348.20413272 34.28016663 348.19308472 C29.76255229 348.18287119 25.24493272 348.1782912 20.72731018 348.17324829 C11.85685313 348.16251048 2.9864203 348.14543373 -5.88401794 348.12442017 C-5.90688241 303.93569405 -5.9245152 259.74696856 -5.93508327 215.55823771 C-5.93633405 210.34714422 -5.93762837 205.13605074 -5.93894958 199.92495728 C-5.9392119 198.88747626 -5.93947421 197.84999524 -5.93974447 196.78107541 C-5.94410158 179.9590806 -5.95198935 163.13708918 -5.96117074 146.31509639 C-5.97050614 129.0677125 -5.97607331 111.82033041 -5.97810644 94.5729441 C-5.9794819 83.92136477 -5.98383375 73.26979504 -5.99193441 62.61821865 C-5.99720047 55.32447935 -5.99882256 48.03074506 -5.99751932 40.73700399 C-5.99687572 36.52229392 -5.99789592 32.30760071 -6.00322342 28.0928936 C-6.00805722 24.2408686 -6.00835672 20.38887193 -6.00491684 16.53684568 C-6.00449113 15.13710575 -6.00578703 13.73736412 -6.00890113 12.3376276 C-6.01286493 10.44732099 -6.01017439 8.55700381 -6.00706577 6.66669559 C-6.00744549 5.61297168 -6.00782521 4.55924776 -6.00821644 3.47359282 C-5.78271179 -0.7917516 -3.76922253 0.00819279 0 0 Z " fill="#FDFDFD" transform="translate(221.88401794433594,242.87557983398438)"/>
<path d="M0 0 C9.76150988 -0.02312446 19.5230133 -0.04091561 29.28454494 -0.05181217 C33.81674094 -0.05704078 38.34891827 -0.06413801 42.88110352 -0.07543945 C47.2512283 -0.08626914 51.62133508 -0.09227701 55.99147224 -0.09487724 C57.66250963 -0.09673135 59.33354597 -0.10035168 61.00457573 -0.10573006 C63.33697551 -0.11294159 65.66929993 -0.1139909 68.00170898 -0.11352539 C68.6994191 -0.11712067 69.39712921 -0.12071594 70.11598206 -0.12442017 C74.88594784 -0.11405216 74.88594784 -0.11405216 76 1 C76.09755941 2.84530326 76.12371373 4.69439515 76.12304783 6.54227543 C76.12503888 7.75300474 76.12702993 8.96373406 76.12908131 10.21115214 C76.12622772 11.57200709 76.12328211 12.93286185 76.12025452 14.29371643 C76.12069009 15.72588541 76.12156475 17.15805431 76.12284368 18.59022278 C76.12509133 22.54431962 76.1210637 26.49838964 76.11606562 30.45248306 C76.11176515 34.70949231 76.11320726 38.96649993 76.1139679 43.22351074 C76.11449339 50.60524926 76.11134396 57.98697898 76.10573006 65.36871529 C76.09761846 76.04159398 76.09500019 86.71446839 76.09374207 97.38734984 C76.09155101 114.70151364 76.08488947 132.01567274 76.07543945 149.32983398 C76.06626672 166.15340145 76.05918521 182.97696765 76.05493164 199.80053711 C76.05466892 200.83676185 76.05440619 201.87298659 76.05413551 202.94061209 C76.05283051 208.13881417 76.0515668 213.33701626 76.05032361 218.53521836 C76.03994932 261.69014883 76.02232955 304.84507417 76 348 C66.23849012 348.02312446 56.4769867 348.04091561 46.71545506 348.05181217 C42.18325906 348.05704078 37.65108173 348.06413801 33.11889648 348.07543945 C28.7487717 348.08626914 24.37866492 348.09227701 20.00852776 348.09487724 C18.33749037 348.09673135 16.66645403 348.10035168 14.99542427 348.10573006 C12.66302449 348.11294159 10.33070007 348.1139909 7.99829102 348.11352539 C7.3005809 348.11712067 6.60287079 348.12071594 5.88401794 348.12442017 C1.11405216 348.11405216 1.11405216 348.11405216 0 347 C-0.09755941 345.15469674 -0.12371373 343.30560485 -0.12304783 341.45772457 C-0.12503888 340.24699526 -0.12702993 339.03626594 -0.12908131 337.78884786 C-0.12622772 336.42799291 -0.12328211 335.06713815 -0.12025452 333.70628357 C-0.12069009 332.27411459 -0.12156475 330.84194569 -0.12284368 329.40977722 C-0.12509133 325.45568038 -0.1210637 321.50161036 -0.11606562 317.54751694 C-0.11176515 313.29050769 -0.11320726 309.03350007 -0.1139679 304.77648926 C-0.11449339 297.39475074 -0.11134396 290.01302102 -0.10573006 282.63128471 C-0.09761846 271.95840602 -0.09500019 261.28553161 -0.09374207 250.61265016 C-0.09155101 233.29848636 -0.08488947 215.98432726 -0.07543945 198.67016602 C-0.06626672 181.84659855 -0.05918521 165.02303235 -0.05493164 148.19946289 C-0.05466892 147.16323815 -0.05440619 146.12701341 -0.05413551 145.05938791 C-0.05283051 139.86118583 -0.0515668 134.66298374 -0.05032361 129.46478164 C-0.03994932 86.30985117 -0.02232955 43.15492583 0 0 Z " fill="#00A4F5" transform="translate(520,191)"/>
<path d="M0 0 C9.76150988 -0.02312446 19.5230133 -0.04091561 29.28454494 -0.05181217 C33.81674094 -0.05704078 38.34891827 -0.06413801 42.88110352 -0.07543945 C47.2512283 -0.08626914 51.62133508 -0.09227701 55.99147224 -0.09487724 C57.66250963 -0.09673135 59.33354597 -0.10035168 61.00457573 -0.10573006 C63.33697551 -0.11294159 65.66929993 -0.1139909 68.00170898 -0.11352539 C68.6994191 -0.11712067 69.39712921 -0.12071594 70.11598206 -0.12442017 C74.88594784 -0.11405216 74.88594784 -0.11405216 76 1 C76.09755941 2.84530326 76.12371373 4.69439515 76.12304783 6.54227543 C76.12503888 7.75300474 76.12702993 8.96373406 76.12908131 10.21115214 C76.12622772 11.57200709 76.12328211 12.93286185 76.12025452 14.29371643 C76.12069009 15.72588541 76.12156475 17.15805431 76.12284368 18.59022278 C76.12509133 22.54431962 76.1210637 26.49838964 76.11606562 30.45248306 C76.11176515 34.70949231 76.11320726 38.96649993 76.1139679 43.22351074 C76.11449339 50.60524926 76.11134396 57.98697898 76.10573006 65.36871529 C76.09761846 76.04159398 76.09500019 86.71446839 76.09374207 97.38734984 C76.09155101 114.70151364 76.08488947 132.01567274 76.07543945 149.32983398 C76.06626672 166.15340145 76.05918521 182.97696765 76.05493164 199.80053711 C76.05466892 200.83676185 76.05440619 201.87298659 76.05413551 202.94061209 C76.05283051 208.13881417 76.0515668 213.33701626 76.05032361 218.53521836 C76.03994932 261.69014883 76.02232955 304.84507417 76 348 C66.23849012 348.02312446 56.4769867 348.04091561 46.71545506 348.05181217 C42.18325906 348.05704078 37.65108173 348.06413801 33.11889648 348.07543945 C28.7487717 348.08626914 24.37866492 348.09227701 20.00852776 348.09487724 C18.33749037 348.09673135 16.66645403 348.10035168 14.99542427 348.10573006 C12.66302449 348.11294159 10.33070007 348.1139909 7.99829102 348.11352539 C7.3005809 348.11712067 6.60287079 348.12071594 5.88401794 348.12442017 C1.11405216 348.11405216 1.11405216 348.11405216 0 347 C-0.09755941 345.15469674 -0.12371373 343.30560485 -0.12304783 341.45772457 C-0.12503888 340.24699526 -0.12702993 339.03626594 -0.12908131 337.78884786 C-0.12622772 336.42799291 -0.12328211 335.06713815 -0.12025452 333.70628357 C-0.12069009 332.27411459 -0.12156475 330.84194569 -0.12284368 329.40977722 C-0.12509133 325.45568038 -0.1210637 321.50161036 -0.11606562 317.54751694 C-0.11176515 313.29050769 -0.11320726 309.03350007 -0.1139679 304.77648926 C-0.11449339 297.39475074 -0.11134396 290.01302102 -0.10573006 282.63128471 C-0.09761846 271.95840602 -0.09500019 261.28553161 -0.09374207 250.61265016 C-0.09155101 233.29848636 -0.08488947 215.98432726 -0.07543945 198.67016602 C-0.06626672 181.84659855 -0.05918521 165.02303235 -0.05493164 148.19946289 C-0.05466892 147.16323815 -0.05440619 146.12701341 -0.05413551 145.05938791 C-0.05283051 139.86118583 -0.0515668 134.66298374 -0.05032361 129.46478164 C-0.03994932 86.30985117 -0.02232955 43.15492583 0 0 Z " fill="#00A4F6" transform="translate(616,127)"/>
<path d="M0 0 C0.72030396 -0.00175232 1.44060791 -0.00350464 2.18273926 -0.00531006 C4.57497534 -0.00972835 6.9671381 -0.00679068 9.359375 -0.00341797 C11.01464858 -0.00409101 12.66992207 -0.00506105 14.32519531 -0.00631714 C17.79883767 -0.00779408 21.27245437 -0.00563968 24.74609375 -0.00097656 C29.20869998 0.00472073 33.67124608 0.0014417 38.1338501 -0.00454903 C41.5532273 -0.00815474 44.97259015 -0.00701601 48.39196777 -0.00442123 C50.03788256 -0.00375199 51.68379863 -0.00458029 53.32971191 -0.00690079 C55.62609331 -0.00942749 57.92237599 -0.0055865 60.21875 0 C61.52811523 0.00079559 62.83748047 0.00159119 64.18652344 0.00241089 C67.109375 0.12939453 67.109375 0.12939453 68.109375 1.12939453 C68.20693441 2.97469779 68.23308873 4.82378968 68.23242283 6.67166996 C68.23441388 7.88239927 68.23640493 9.09312859 68.23845631 10.34054667 C68.23560272 11.70140162 68.23265711 13.06225638 68.22962952 14.42311096 C68.23006509 15.85527994 68.23093975 17.28744884 68.23221868 18.71961731 C68.23446633 22.67371415 68.2304387 26.62778417 68.22544062 30.58187759 C68.22114015 34.83888684 68.22258226 39.09589446 68.2233429 43.35290527 C68.22386839 50.7346438 68.22071896 58.11637351 68.21510506 65.49810982 C68.20699346 76.17098851 68.20437519 86.84386293 68.20311707 97.51674437 C68.20092601 114.83090817 68.19426447 132.14506727 68.18481445 149.45922852 C68.17564172 166.28279598 68.16856021 183.10636218 68.16430664 199.92993164 C68.16404392 200.96615638 68.16378119 202.00238112 68.16351051 203.07000662 C68.16220551 208.2682087 68.1609418 213.46641079 68.15969861 218.66461289 C68.14932432 261.81954336 68.13170455 304.9744687 68.109375 348.12939453 C58.34786512 348.15251899 48.5863617 348.17031014 38.82483006 348.1812067 C34.29263406 348.18643531 29.76045673 348.19353254 25.22827148 348.20483398 C20.8581467 348.21566367 16.48803992 348.22167154 12.11790276 348.22427177 C10.44686537 348.22612588 8.77582903 348.22974621 7.10479927 348.23512459 C4.77239949 348.24233612 2.44007507 348.24338543 0.10766602 348.24291992 C-0.5900441 348.2465152 -1.28775421 348.25011047 -2.00660706 348.2538147 C-6.77657284 348.24344669 -6.77657284 348.24344669 -7.890625 347.12939453 C-7.98907596 345.29026175 -8.0161814 343.44729576 -8.01646614 341.60552979 C-8.01907389 340.39890057 -8.02168164 339.19227135 -8.02436841 337.94907761 C-8.02220588 336.59284195 -8.01994921 335.23660645 -8.01760864 333.88037109 C-8.01875949 332.4530394 -8.02034677 331.025708 -8.02233589 329.59837723 C-8.02653416 325.65761469 -8.02443629 321.71687617 -8.02134967 317.77611351 C-8.0190978 313.53339851 -8.02257411 309.2906878 -8.02532959 305.04797363 C-8.02978858 296.72916506 -8.02881025 288.41036548 -8.02591695 280.09155655 C-8.02366342 273.33386409 -8.02335017 266.57617417 -8.02444077 259.81848145 C-8.024594 258.85863067 -8.02474723 257.89877989 -8.02490511 256.90984273 C-8.02522482 254.96024799 -8.02554903 253.01065326 -8.0258777 251.06105852 C-8.02873287 232.75691458 -8.02544489 214.45277564 -8.02007733 196.14863253 C-8.01560926 180.42476944 -8.01638518 164.70091373 -8.02099609 148.97705078 C-8.02634121 130.74077101 -8.02845817 112.50449562 -8.02538383 94.26821518 C-8.02506526 92.32557933 -8.02475089 90.38294347 -8.02444077 88.44030762 C-8.02428649 87.48436116 -8.02413221 86.52841471 -8.02397326 85.54350019 C-8.02310792 78.78978193 -8.02457136 72.03606645 -8.02692032 65.28234863 C-8.02971782 57.05777385 -8.02898112 48.83320863 -8.02363957 40.60863495 C-8.02100188 36.40809605 -8.01999863 32.2075731 -8.02328873 28.0070343 C-8.02625031 24.16799996 -8.02466121 20.32899647 -8.01931117 16.48996496 C-8.01818639 15.09496641 -8.0187795 13.69996529 -8.02118696 12.30496836 C-8.02419085 10.42106707 -8.02053759 8.53715856 -8.01646614 6.65325928 C-8.01630379 5.6031152 -8.01614144 4.55297112 -8.01597416 3.47100449 C-7.75471912 -1.40942228 -4.12373781 0.00250566 0 0 Z " fill="#00A5F6" transform="translate(429.890625,242.87060546875)"/>
<path d="M0 0 C24.42 0 48.84 0 74 0 C74 114.84 74 229.68 74 348 C49.25 348 24.5 348 -1 348 C-1.02202541 303.8112721 -1.04049725 259.62254935 -1.05106533 215.43381754 C-1.05231611 210.22272405 -1.05361042 205.01163058 -1.05493164 199.80053711 C-1.05519395 198.76305609 -1.05545626 197.72557508 -1.05572652 196.65665524 C-1.06008363 179.83466043 -1.0679714 163.01266901 -1.0771528 146.19067622 C-1.0864882 128.94329234 -1.09205537 111.69591024 -1.09408849 94.44852394 C-1.09546396 83.7969446 -1.09981581 73.14537487 -1.10791647 62.49379849 C-1.11318253 55.20005919 -1.11480462 47.90632489 -1.11350138 40.61258382 C-1.11285778 36.39787376 -1.11387797 32.18318054 -1.11920547 27.96847343 C-1.12403928 24.11644844 -1.12433878 20.26445176 -1.12089889 16.41242551 C-1.12047318 15.01268559 -1.12176908 13.61294396 -1.12488318 12.21320743 C-1.12884698 10.32290082 -1.12615645 8.43258364 -1.12304783 6.54227543 C-1.12342755 5.48855151 -1.12380727 4.4348276 -1.1241985 3.34917265 C-1 1 -1 1 0 0 Z " fill="#FEFEFE" transform="translate(113,291)"/>
</svg>
